<svg xmlns="http://www.w3.org/2000/svg" viewBox="0 0 64 64" fill="none">
  <rect width="64" height="64" rx="16" fill="#020617"/>
  <path
    d="M45.3333 13.3333H34.6667V10.6667H29.3333V13.3333H18.6667C14.2484 13.3333 10.6667 16.9151 10.6667 21.3333V29.3333C10.6667 36.6971 16.6362 42.6667 24 42.6667H40C47.3638 42.6667 53.3333 36.6971 53.3333 29.3333V21.3333C53.3333 16.9151 49.7516 13.3333 45.3333 13.3333ZM29.3333 28C29.3333 30.2091 27.5425 32 25.3333 32C23.1242 32 21.3333 30.2091 21.3333 28C21.3333 25.7909 23.1242 24 25.3333 24C27.5425 24 29.3333 25.7909 29.3333 28ZM42.6667 28C42.6667 30.2091 40.8758 32 38.6667 32C36.4575 32 34.6667 30.2091 34.6667 28C34.6667 25.7909 36.4575 24 38.6667 24C40.8758 24 42.6667 25.7909 42.6667 28ZM10.6667 58.6667C10.6667 46.8845 20.2179 37.3333 32 37.3333C43.7821 37.3333 53.3333 46.8845 53.3333 58.6667H10.6667Z"
    fill="#38bdf8"
  />
</svg>
